<svg height="2638" width="720" xmlns="http://www.w3.org/2000/svg">
<rect height="2638" fill="#555" width="720"></rect>
<text fill="#7f7" font-family="Courier New" font-size="12" xml:space="preserve">
<tspan x="10" y="26">43 megabytes installed</tspan>
<tspan x="10" y="42"></tspan>
<tspan x="10" y="58">node_modules</tspan>
<tspan x="10" y="74">└─┬ webdriverio@4.6.2 </tspan>
<tspan x="10" y="90">  ├─┬ archiver@1.0.0 </tspan>
<tspan x="10" y="106">  │ ├─┬ archiver-utils@1.3.0 </tspan>
<tspan x="10" y="122">  │ │ ├── graceful-fs@4.1.11 </tspan>
<tspan x="10" y="138">  │ │ ├── lazystream@1.0.0 </tspan>
<tspan x="10" y="154">  │ │ └─┬ normalize-path@2.1.1 </tspan>
<tspan x="10" y="170">  │ │   └── remove-trailing-separator@1.0.1 </tspan>
<tspan x="10" y="186">  │ ├── async@1.5.2 </tspan>
<tspan x="10" y="202">  │ ├── buffer-crc32@0.2.13 </tspan>
<tspan x="10" y="218">  │ ├── lodash@4.17.4 </tspan>
<tspan x="10" y="234">  │ ├─┬ readable-stream@2.2.9 </tspan>
<tspan x="10" y="250">  │ │ ├── buffer-shims@1.0.0 </tspan>
<tspan x="10" y="266">  │ │ ├── core-util-is@1.0.2 </tspan>
<tspan x="10" y="282">  │ │ ├── isarray@1.0.0 </tspan>
<tspan x="10" y="298">  │ │ ├── process-nextick-args@1.0.7 </tspan>
<tspan x="10" y="314">  │ │ ├── string_decoder@1.0.0 </tspan>
<tspan x="10" y="330">  │ │ └── util-deprecate@1.0.2 </tspan>
<tspan x="10" y="346">  │ ├─┬ tar-stream@1.5.2 </tspan>
<tspan x="10" y="362">  │ │ ├── bl@1.2.0 </tspan>
<tspan x="10" y="378">  │ │ ├── end-of-stream@1.4.0 </tspan>
<tspan x="10" y="394">  │ │ └── xtend@4.0.1 </tspan>
<tspan x="10" y="410">  │ └─┬ zip-stream@1.1.1 </tspan>
<tspan x="10" y="426">  │   └─┬ compress-commons@1.2.0 </tspan>
<tspan x="10" y="442">  │     └─┬ crc32-stream@2.0.0 </tspan>
<tspan x="10" y="458">  │       └── crc@3.4.4 </tspan>
<tspan x="10" y="474">  ├─┬ babel-runtime@6.23.0 </tspan>
<tspan x="10" y="490">  │ ├── core-js@2.4.1 </tspan>
<tspan x="10" y="506">  │ └── regenerator-runtime@0.10.3 </tspan>
<tspan x="10" y="522">  ├─┬ css-parse@2.0.0 </tspan>
<tspan x="10" y="538">  │ └─┬ css@2.2.1 </tspan>
<tspan x="10" y="554">  │   ├─┬ source-map@0.1.43 </tspan>
<tspan x="10" y="570">  │   │ └── amdefine@1.0.1 </tspan>
<tspan x="10" y="586">  │   ├─┬ source-map-resolve@0.3.1 </tspan>
<tspan x="10" y="602">  │   │ ├── atob@1.1.3 </tspan>
<tspan x="10" y="618">  │   │ ├── resolve-url@0.2.1 </tspan>
<tspan x="10" y="634">  │   │ └── source-map-url@0.3.0 </tspan>
<tspan x="10" y="650">  │   └── urix@0.1.0 </tspan>
<tspan x="10" y="666">  ├── css-value@0.0.1 </tspan>
<tspan x="10" y="682">  ├── deepmerge@0.2.10 </tspan>
<tspan x="10" y="698">  ├── ejs@2.5.6 </tspan>
<tspan x="10" y="714">  ├─┬ gaze@1.1.2 </tspan>
<tspan x="10" y="730">  │ └─┬ globule@1.1.0 </tspan>
<tspan x="10" y="746">  │   └── lodash@4.16.6 </tspan>
<tspan x="10" y="762">  ├─┬ glob@7.1.1 </tspan>
<tspan x="10" y="778">  │ ├── fs.realpath@1.0.0 </tspan>
<tspan x="10" y="794">  │ ├─┬ inflight@1.0.6 </tspan>
<tspan x="10" y="810">  │ │ └── wrappy@1.0.2 </tspan>
<tspan x="10" y="826">  │ ├── inherits@2.0.3 </tspan>
<tspan x="10" y="842">  │ ├─┬ minimatch@3.0.3 </tspan>
<tspan x="10" y="858">  │ │ └─┬ brace-expansion@1.1.7 </tspan>
<tspan x="10" y="874">  │ │   ├── balanced-match@0.4.2 </tspan>
<tspan x="10" y="890">  │ │   └── concat-map@0.0.1 </tspan>
<tspan x="10" y="906">  │ ├── once@1.4.0 </tspan>
<tspan x="10" y="922">  │ └── path-is-absolute@1.0.1 </tspan>
<tspan x="10" y="938">  ├─┬ inquirer@1.2.3 </tspan>
<tspan x="10" y="954">  │ ├── ansi-escapes@1.4.0 </tspan>
<tspan x="10" y="970">  │ ├─┬ chalk@1.1.3 </tspan>
<tspan x="10" y="986">  │ │ ├── ansi-styles@2.2.1 </tspan>
<tspan x="10" y="1002">  │ │ ├── escape-string-regexp@1.0.5 </tspan>
<tspan x="10" y="1018">  │ │ ├── has-ansi@2.0.0 </tspan>
<tspan x="10" y="1034">  │ │ └── supports-color@2.0.0 </tspan>
<tspan x="10" y="1050">  │ ├─┬ cli-cursor@1.0.2 </tspan>
<tspan x="10" y="1066">  │ │ └─┬ restore-cursor@1.0.1 </tspan>
<tspan x="10" y="1082">  │ │   ├── exit-hook@1.1.1 </tspan>
<tspan x="10" y="1098">  │ │   └── onetime@1.1.0 </tspan>
<tspan x="10" y="1114">  │ ├── cli-width@2.1.0 </tspan>
<tspan x="10" y="1130">  │ ├─┬ external-editor@1.1.1 </tspan>
<tspan x="10" y="1146">  │ │ ├─┬ spawn-sync@1.0.15 </tspan>
<tspan x="10" y="1162">  │ │ │ ├─┬ concat-stream@1.6.0 </tspan>
<tspan x="10" y="1178">  │ │ │ │ └── typedarray@0.0.6 </tspan>
<tspan x="10" y="1194">  │ │ │ └── os-shim@0.1.3 </tspan>
<tspan x="10" y="1210">  │ │ └─┬ tmp@0.0.29 </tspan>
<tspan x="10" y="1226">  │ │   └── os-tmpdir@1.0.2 </tspan>
<tspan x="10" y="1242">  │ ├─┬ figures@1.7.0 </tspan>
<tspan x="10" y="1258">  │ │ └── object-assign@4.1.1 </tspan>
<tspan x="10" y="1274">  │ ├── mute-stream@0.0.6 </tspan>
<tspan x="10" y="1290">  │ ├─┬ pinkie-promise@2.0.1 </tspan>
<tspan x="10" y="1306">  │ │ └── pinkie@2.0.4 </tspan>
<tspan x="10" y="1322">  │ ├─┬ run-async@2.3.0 </tspan>
<tspan x="10" y="1338">  │ │ └── is-promise@2.1.0 </tspan>
<tspan x="10" y="1354">  │ ├── rx@4.1.0 </tspan>
<tspan x="10" y="1370">  │ ├─┬ string-width@1.0.2 </tspan>
<tspan x="10" y="1386">  │ │ ├── code-point-at@1.1.0 </tspan>
<tspan x="10" y="1402">  │ │ └─┬ is-fullwidth-code-point@1.0.0 </tspan>
<tspan x="10" y="1418">  │ │   └── number-is-nan@1.0.1 </tspan>
<tspan x="10" y="1434">  │ ├─┬ strip-ansi@3.0.1 </tspan>
<tspan x="10" y="1450">  │ │ └── ansi-regex@2.1.1 </tspan>
<tspan x="10" y="1466">  │ └── through@2.3.8 </tspan>
<tspan x="10" y="1482">  ├── json-stringify-safe@5.0.1 </tspan>
<tspan x="10" y="1498">  ├─┬ mkdirp@0.5.1 </tspan>
<tspan x="10" y="1514">  │ └── minimist@0.0.8 </tspan>
<tspan x="10" y="1530">  ├─┬ npm-install-package@1.1.0 </tspan>
<tspan x="10" y="1546">  │ └── noop2@2.0.0 </tspan>
<tspan x="10" y="1562">  ├─┬ optimist@0.6.1 </tspan>
<tspan x="10" y="1578">  │ └── wordwrap@0.0.3 </tspan>
<tspan x="10" y="1594">  ├── q@1.4.1 </tspan>
<tspan x="10" y="1610">  ├─┬ request@2.79.0 </tspan>
<tspan x="10" y="1626">  │ ├── aws-sign2@0.6.0 </tspan>
<tspan x="10" y="1642">  │ ├── aws4@1.6.0 </tspan>
<tspan x="10" y="1658">  │ ├── caseless@0.11.0 </tspan>
<tspan x="10" y="1674">  │ ├─┬ combined-stream@1.0.5 </tspan>
<tspan x="10" y="1690">  │ │ └── delayed-stream@1.0.0 </tspan>
<tspan x="10" y="1706">  │ ├── extend@3.0.0 </tspan>
<tspan x="10" y="1722">  │ ├── forever-agent@0.6.1 </tspan>
<tspan x="10" y="1738">  │ ├─┬ form-data@2.1.4 </tspan>
<tspan x="10" y="1754">  │ │ └── asynckit@0.4.0 </tspan>
<tspan x="10" y="1770">  │ ├─┬ har-validator@2.0.6 </tspan>
<tspan x="10" y="1786">  │ │ ├─┬ commander@2.9.0 </tspan>
<tspan x="10" y="1802">  │ │ │ └── graceful-readlink@1.0.1 </tspan>
<tspan x="10" y="1818">  │ │ └─┬ is-my-json-valid@2.16.0 </tspan>
<tspan x="10" y="1834">  │ │   ├── generate-function@2.0.0 </tspan>
<tspan x="10" y="1850">  │ │   ├─┬ generate-object-property@1.2.0 </tspan>
<tspan x="10" y="1866">  │ │   │ └── is-property@1.0.2 </tspan>
<tspan x="10" y="1882">  │ │   └── jsonpointer@4.0.1 </tspan>
<tspan x="10" y="1898">  │ ├─┬ hawk@3.1.3 </tspan>
<tspan x="10" y="1914">  │ │ ├── boom@2.10.1 </tspan>
<tspan x="10" y="1930">  │ │ ├── cryptiles@2.0.5 </tspan>
<tspan x="10" y="1946">  │ │ ├── hoek@2.16.3 </tspan>
<tspan x="10" y="1962">  │ │ └── sntp@1.0.9 </tspan>
<tspan x="10" y="1978">  │ ├─┬ http-signature@1.1.1 </tspan>
<tspan x="10" y="1994">  │ │ ├── assert-plus@0.2.0 </tspan>
<tspan x="10" y="2010">  │ │ ├─┬ jsprim@1.4.0 </tspan>
<tspan x="10" y="2026">  │ │ │ ├── assert-plus@1.0.0 </tspan>
<tspan x="10" y="2042">  │ │ │ ├── extsprintf@1.0.2 </tspan>
<tspan x="10" y="2058">  │ │ │ ├── json-schema@0.2.3 </tspan>
<tspan x="10" y="2074">  │ │ │ └── verror@1.3.6 </tspan>
<tspan x="10" y="2090">  │ │ └─┬ sshpk@1.13.0 </tspan>
<tspan x="10" y="2106">  │ │   ├── asn1@0.2.3 </tspan>
<tspan x="10" y="2122">  │ │   ├── assert-plus@1.0.0 </tspan>
<tspan x="10" y="2138">  │ │   ├── bcrypt-pbkdf@1.0.1 </tspan>
<tspan x="10" y="2154">  │ │   ├─┬ dashdash@1.14.1 </tspan>
<tspan x="10" y="2170">  │ │   │ └── assert-plus@1.0.0 </tspan>
<tspan x="10" y="2186">  │ │   ├── ecc-jsbn@0.1.1 </tspan>
<tspan x="10" y="2202">  │ │   ├─┬ getpass@0.1.6 </tspan>
<tspan x="10" y="2218">  │ │   │ └── assert-plus@1.0.0 </tspan>
<tspan x="10" y="2234">  │ │   ├── jodid25519@1.0.2 </tspan>
<tspan x="10" y="2250">  │ │   ├── jsbn@0.1.1 </tspan>
<tspan x="10" y="2266">  │ │   └── tweetnacl@0.14.5 </tspan>
<tspan x="10" y="2282">  │ ├── is-typedarray@1.0.0 </tspan>
<tspan x="10" y="2298">  │ ├── isstream@0.1.2 </tspan>
<tspan x="10" y="2314">  │ ├─┬ mime-types@2.1.15 </tspan>
<tspan x="10" y="2330">  │ │ └── mime-db@1.27.0 </tspan>
<tspan x="10" y="2346">  │ ├── oauth-sign@0.8.2 </tspan>
<tspan x="10" y="2362">  │ ├── qs@6.3.2 </tspan>
<tspan x="10" y="2378">  │ ├── stringstream@0.0.5 </tspan>
<tspan x="10" y="2394">  │ ├─┬ tough-cookie@2.3.2 </tspan>
<tspan x="10" y="2410">  │ │ └── punycode@1.4.1 </tspan>
<tspan x="10" y="2426">  │ ├── tunnel-agent@0.4.3 </tspan>
<tspan x="10" y="2442">  │ └── uuid@3.0.1 </tspan>
<tspan x="10" y="2458">  ├── rgb2hex@0.1.0 </tspan>
<tspan x="10" y="2474">  ├─┬ supports-color@3.2.3 </tspan>
<tspan x="10" y="2490">  │ └── has-flag@1.0.0 </tspan>
<tspan x="10" y="2506">  ├─┬ url@0.11.0 </tspan>
<tspan x="10" y="2522">  │ ├── punycode@1.3.2 </tspan>
<tspan x="10" y="2538">  │ └── querystring@0.2.0 </tspan>
<tspan x="10" y="2554">  ├── validator@5.7.0 </tspan>
<tspan x="10" y="2570">  ├─┬ wdio-dot-reporter@0.0.6 </tspan>
<tspan x="10" y="2586">  │ └─┬ babel-runtime@5.8.38 </tspan>
<tspan x="10" y="2602">  │   └── core-js@1.2.7 </tspan>
<tspan x="10" y="2618">  └── wgxpath@1.0.0</tspan>
</text>
</svg>
